<?xml version="1.0" encoding="utf-8"?>
<!-- Generator: Adobe Illustrator 27.0.0, SVG Export Plug-In . SVG Version: 6.00 Build 0)  -->
<svg version="1.1" id="Layer_1" xmlns="http://www.w3.org/2000/svg" xmlns:xlink="http://www.w3.org/1999/xlink" x="0px" y="0px"
	 viewBox="0 0 149.1 40" style="enable-background:new 0 0 149.1 40;" xml:space="preserve">
<style type="text/css">
	.st0{fill:#0053F5;}
	.st1{opacity:0.7;fill:url(#SVGID_1_);enable-background:new    ;}
	.st2{opacity:0.7;fill:url(#SVGID_00000122722328089885115310000003189756334546588848_);enable-background:new    ;}
	.st3{fill:#111111;}
</style>
<g>
	<g>
		<path class="st0" d="M35.6,0.7c-2-1.1-4.5-0.8-6.2,0.7l-4.8,4.1L19.1,10L8.9,1.4C7.2-0.2,4.7-0.5,2.7,0.7C1,1.6,0,3.5,0,5.5v29.1
			c0,1.9,1,3.8,2.7,4.7C3.5,39.8,4.4,40,5.3,40c1.1,0,2.3-0.4,3.2-1.1l5.7-4.4l4.9-3.8L29.8,39c1.7,1.3,3.9,1.4,5.8,0.4
			c1.7-0.9,2.7-2.8,2.7-4.7V5.5C38.2,3.5,37.3,1.6,35.6,0.7z M32.8,34.5l-9.3-7.2l-4.4-3.4l-2-1.5c-2.6-2-6.2-2-8.7,0.1l6.2,4.8
			L9.8,31l-4.4,3.4V5.6l9.5,8L19,17l0.1,0.1l1.8,1.5c2.4,2,6,2.1,8.5,0.1c-0.1-0.1-0.1-0.1-0.2-0.2l-0.1-0.1l-5.8-4.8l3.7-3.1
			l5.8-4.9V34.5z"/>
		
			<linearGradient id="SVGID_1_" gradientUnits="userSpaceOnUse" x1="20.4469" y1="-1008.4581" x2="25.3403" y2="-1004.3702" gradientTransform="matrix(1 0 0 -1 0 -996)">
			<stop  offset="0" style="stop-color:#000000;stop-opacity:0.8"/>
			<stop  offset="1" style="stop-color:#231F20;stop-opacity:0"/>
		</linearGradient>
		<polygon class="st1" points="27.2,10.4 23.3,13.6 19.1,10 24.6,5.5 		"/>
		
			<linearGradient id="SVGID_00000048501264949673086110000008786654138416263562_" gradientUnits="userSpaceOnUse" x1="16.7596" y1="1065.8096" x2="13.0562" y2="1070.6848" gradientTransform="matrix(1 0 0 1 0 -1038)">
			<stop  offset="0" style="stop-color:#000000;stop-opacity:0.8"/>
			<stop  offset="1" style="stop-color:#231F20;stop-opacity:0"/>
		</linearGradient>
		
			<polygon style="opacity:0.7;fill:url(#SVGID_00000048501264949673086110000008786654138416263562_);enable-background:new    ;" points="
			19.1,30.7 14.2,34.5 9.8,31 14.6,27.3 		"/>
	</g>
	<g>
		<path class="st3" d="M48.8,8l-1.1,9.8h-2.3l2.3-13.2h3.4l3.2,10l3.2-10h3.4l1.9,13.2H59l-1-9.6l-2.6,9.6H52L48.8,8z"/>
		<path class="st3" d="M68.5,4.7c0,0.2,0,0.5-0.1,0.7S68.1,5.7,68,5.9c-0.2,0.2-0.3,0.3-0.6,0.4c-0.2,0.1-0.4,0.1-0.7,0.1
			s-0.5,0-0.7-0.1s-0.4-0.2-0.5-0.4s-0.3-0.3-0.4-0.5c0-0.2-0.1-0.5-0.1-0.7s0-0.4,0.1-0.7c0.1-0.2,0.2-0.4,0.4-0.5
			c0.2-0.2,0.3-0.3,0.5-0.4c0.3,0,0.5-0.1,0.7-0.1s0.5,0,0.7,0.1s0.4,0.2,0.6,0.4s0.3,0.3,0.4,0.5C68.5,4.2,68.5,4.5,68.5,4.7z
			 M68.3,17.8h-3.2V7.3h3.2V17.8z"/>
		<path class="st3" d="M80.5,14.4c0,0.5-0.1,0.9-0.2,1.2s-0.3,0.7-0.6,0.9c-0.2,0.3-0.5,0.5-0.8,0.7s-0.7,0.3-1,0.4
			c-0.4,0.1-0.8,0.2-1.2,0.2c-0.4,0-0.8,0.1-1.2,0.1c-0.5,0-1,0-1.4-0.1s-0.8-0.2-1.2-0.3c-0.4-0.1-0.7-0.3-1.1-0.6
			c-0.4-0.2-0.8-0.5-1.2-0.9l1.8-1.5c0.2,0.3,0.4,0.6,0.7,0.8c0.3,0.3,0.6,0.5,0.9,0.7c0.3,0.2,0.6,0.3,0.9,0.4s0.5,0.1,0.7,0.1
			c0.1,0,0.3,0,0.5,0s0.4,0,0.6-0.1c0.2,0,0.4-0.1,0.6-0.1c0.2-0.1,0.3-0.1,0.5-0.2c0.1-0.1,0.3-0.2,0.3-0.4s0.1-0.3,0.1-0.5
			s-0.1-0.4-0.2-0.5s-0.3-0.3-0.4-0.4c-0.2-0.1-0.4-0.2-0.6-0.3s-0.5-0.1-0.7-0.2c-0.2-0.1-0.4-0.1-0.7-0.2c-0.2,0-0.4-0.1-0.6-0.1
			c-0.3-0.1-0.6-0.2-0.9-0.2c-0.3-0.1-0.6-0.2-0.9-0.3s-0.6-0.2-0.9-0.4s-0.5-0.3-0.8-0.5c-0.2-0.2-0.4-0.4-0.5-0.7s-0.2-0.6-0.2-1
			c0-0.7,0.1-1.3,0.4-1.7s0.6-0.8,1.1-1.1c0.5-0.3,1-0.5,1.6-0.6s1,0,1.6,0c0.4,0,0.8,0,1.3,0.1s0.9,0.2,1.3,0.4
			c0.4,0.2,0.8,0.4,1.2,0.6c0.4,0.2,0.7,0.5,0.9,0.8l-1.8,1.5c-0.1-0.4-0.3-0.7-0.5-0.9S77.4,9,77.2,8.9s-0.5-0.3-0.8-0.4
			c-0.3-0.1-0.5-0.1-0.8-0.1c-0.2,0-0.5,0-0.8,0S74.3,8.5,74,8.6c-0.2,0.1-0.5,0.2-0.6,0.4c-0.2,0.2-0.3,0.4-0.3,0.7
			c0,0.2,0.1,0.4,0.2,0.6c0.1,0.2,0.2,0.3,0.4,0.4c0.2,0.1,0.4,0.2,0.6,0.3s0.4,0.1,0.7,0.2c0.2,0.1,0.4,0.1,0.7,0.2
			c0.2,0,0.4,0.1,0.6,0.1c0.3,0.1,0.6,0.2,0.9,0.2c0.3,0.1,0.6,0.2,1,0.3c0.3,0.1,0.6,0.2,0.9,0.4s0.5,0.3,0.8,0.5
			c0.2,0.2,0.4,0.4,0.5,0.7C80.4,13.7,80.5,14.1,80.5,14.4z"/>
		<path class="st3" d="M94.2,12.5c0,0.8-0.1,1.5-0.4,2.2s-0.6,1.3-1,1.7c-0.5,0.5-1,0.9-1.7,1.2S89.8,18,89,18
			c-0.4,0-0.8-0.1-1.2-0.2s-0.7-0.3-1-0.5s-0.6-0.5-0.8-0.8s-0.4-0.7-0.6-1L84,17.8h-1.2V3.4H86v5.1c0.4-0.5,0.8-0.9,1.4-1.1
			C87.8,7.2,88.3,7,89,7c0.8,0,1.6,0.1,2.2,0.4c0.7,0.3,1.2,0.7,1.7,1.2c0.4,0.5,0.8,1.1,1,1.7S94.2,11.8,94.2,12.5z M91,12.5
			c0-0.3,0-0.6,0-0.9s-0.1-0.6-0.1-0.9c-0.1-0.3-0.2-0.6-0.3-0.9c-0.1-0.3-0.3-0.5-0.5-0.7s-0.4-0.4-0.7-0.5
			c-0.3-0.1-0.6-0.2-0.9-0.2s-0.6,0.1-0.9,0.2S87.1,9,86.9,9.2s-0.4,0.5-0.5,0.7c-0.1,0.3-0.2,0.6-0.3,0.9c-0.1,0.3-0.1,0.6-0.2,0.9
			c0,0.3-0.1,0.6-0.1,0.8c0,0.3,0,0.6,0,0.9c0,0.3,0.1,0.6,0.1,0.9c0.1,0.3,0.2,0.6,0.3,0.9c0.1,0.3,0.3,0.5,0.5,0.7
			c0.2,0.2,0.4,0.4,0.7,0.5c0.3,0.1,0.6,0.2,0.9,0.2c0.4,0,0.7-0.1,0.9-0.2c0.3-0.1,0.5-0.3,0.7-0.5s0.3-0.5,0.5-0.7
			c0.1-0.3,0.2-0.6,0.3-0.9c0.1-0.3,0.1-0.6,0.1-0.9C91,13.1,91,12.8,91,12.5z"/>
		<path class="st3" d="M107.4,17.8h-3.2v-1.3c-0.4,0.5-0.8,0.9-1.4,1.1c-0.5,0.2-1.1,0.4-1.7,0.4c-0.8,0-1.6-0.1-2.2-0.4
			c-0.7-0.3-1.2-0.7-1.7-1.2s-0.8-1.1-1-1.7c-0.2-0.7-0.4-1.4-0.4-2.2s0.1-1.5,0.4-2.2c0.2-0.7,0.6-1.3,1-1.7c0.5-0.5,1-0.9,1.7-1.2
			c0.7-0.3,1.4-0.4,2.2-0.4c0.4,0,0.8,0.1,1.2,0.2c0.4,0.1,0.7,0.3,1,0.5s0.6,0.5,0.8,0.8c0.2,0.3,0.4,0.7,0.6,1l1.4-2.3h1.2
			L107.4,17.8L107.4,17.8z M104.2,12.5c0-0.3,0-0.6,0-0.9c0-0.3-0.1-0.6-0.1-0.9c-0.1-0.3-0.2-0.6-0.3-0.9c-0.1-0.3-0.3-0.5-0.5-0.7
			s-0.4-0.4-0.7-0.5c-0.3-0.1-0.6-0.2-0.9-0.2c-0.4,0-0.7,0.1-0.9,0.2c-0.3,0.1-0.5,0.3-0.7,0.5s-0.3,0.5-0.5,0.7
			c-0.1,0.3-0.2,0.6-0.3,0.9c-0.1,0.3-0.1,0.6-0.1,0.9c0,0.3,0,0.6,0,0.9c0,0.3,0,0.6,0,0.9c0,0.3,0.1,0.6,0.1,0.9
			c0.1,0.3,0.2,0.6,0.3,0.9s0.3,0.5,0.5,0.7s0.4,0.4,0.7,0.5c0.3,0.1,0.6,0.2,0.9,0.2s0.6-0.1,0.9-0.2s0.5-0.3,0.7-0.5
			c0.2-0.2,0.4-0.5,0.5-0.7c0.1-0.3,0.2-0.6,0.3-0.9c0.1-0.3,0.1-0.6,0.2-0.9C104.2,13,104.2,12.7,104.2,12.5z"/>
		<path class="st3" d="M121.3,11.8c0,0.7-0.1,1.5-0.3,2.2c-0.2,0.8-0.4,1.5-0.7,2.3c-0.3,0.7-0.7,1.4-1.1,2.1s-0.9,1.2-1.5,1.7
			l-1.2-0.6c0.2-0.3,0.3-0.6,0.5-1s0.3-0.8,0.4-1.2s0.2-0.9,0.3-1.3c0.1-0.5,0.2-0.9,0.2-1.3c0.1-0.4,0.1-0.9,0.1-1.3
			s0.1-0.8,0.1-1.2c0-0.2,0-0.5,0-0.8s-0.1-0.5-0.1-0.8s-0.1-0.5-0.2-0.8c-0.1-0.2-0.2-0.5-0.4-0.7c-0.2-0.2-0.4-0.3-0.6-0.5
			c-0.2-0.1-0.5-0.2-0.8-0.2s-0.6,0.1-0.8,0.2c-0.2,0.1-0.5,0.3-0.6,0.5c-0.2,0.2-0.3,0.5-0.5,0.8c-0.1,0.3-0.2,0.6-0.3,0.9
			c-0.1,0.3-0.1,0.6-0.2,0.9c0,0.3-0.1,0.6-0.1,0.8v5.3h-3.2V3.4h3.2v5.4c0.4-0.6,0.9-1,1.5-1.3s1.2-0.5,2-0.5s1.4,0.1,2,0.4
			c0.6,0.2,1,0.6,1.4,1s0.6,0.9,0.8,1.5C121.2,10.4,121.3,11.1,121.3,11.8z"/>
		<path class="st3" d="M123,13.3c0-0.5,0-1,0.1-1.5s0.2-1,0.4-1.6c0.2-0.5,0.4-1,0.6-1.5s0.5-1,0.8-1.5h2.3
			c-0.2,0.5-0.3,0.9-0.4,1.4s-0.2,1-0.3,1.5c-0.1,0.5-0.2,1-0.2,1.5s-0.1,0.9-0.1,1.3c0,0.2,0,0.5,0,0.8s0.1,0.5,0.1,0.8
			s0.1,0.5,0.2,0.8c0.1,0.2,0.2,0.5,0.4,0.7c0.2,0.2,0.4,0.3,0.6,0.5s0.5,0.2,0.8,0.2s0.6-0.1,0.8-0.2s0.5-0.3,0.7-0.5
			c0.2-0.2,0.3-0.5,0.5-0.8c0.1-0.3,0.2-0.6,0.3-0.9c0.1-0.3,0.1-0.6,0.2-0.9c0-0.3,0.1-0.5,0.1-0.8V7.3h3.2v10.5h-1.2l-1.5-2.5
			c-0.2,0.4-0.4,0.8-0.7,1.1s-0.6,0.6-0.9,0.9c-0.3,0.2-0.7,0.4-1.1,0.5c-0.4,0.1-0.8,0.2-1.3,0.2c-0.8,0-1.4-0.1-2-0.4
			c-0.6-0.2-1-0.6-1.4-1s-0.6-0.9-0.8-1.5S123,14,123,13.3z"/>
		<path class="st3" d="M146.2,8.2l-1.8,2.9c-0.1-0.2-0.2-0.5-0.3-0.8s-0.3-0.6-0.4-0.9c-0.2-0.3-0.4-0.5-0.6-0.7s-0.5-0.3-0.8-0.3
			s-0.5,0.1-0.8,0.2c-0.2,0.1-0.4,0.3-0.5,0.6s-0.3,0.5-0.4,0.8c-0.1,0.3-0.2,0.6-0.2,0.9c-0.1,0.3-0.1,0.6-0.1,0.9
			c0,0.3,0,0.5,0,0.7v5.3H137V7.3h1.2l1.3,2.5c0.2-0.4,0.4-0.8,0.6-1.1c0.2-0.3,0.5-0.6,0.8-0.9c0.3-0.2,0.6-0.4,1-0.6
			c0.4-0.1,0.8-0.2,1.3-0.2c0.2,0,0.5,0,0.8,0.1c0.3,0,0.6,0.1,0.9,0.2c0.3,0.1,0.6,0.2,0.8,0.4C145.8,7.8,146,8,146.2,8.2z"/>
		<path class="st3" d="M49.9,35.8h-3.7V22.7h6.6c0.6,0,1.2,0.1,1.8,0.2s1.1,0.4,1.5,0.7c0.4,0.3,0.8,0.7,1.1,1.2s0.4,1.1,0.4,1.8
			c0,0.5-0.1,1.1-0.4,1.5c-0.2,0.5-0.5,0.9-0.9,1.3s-0.8,0.7-1.3,0.9c-0.5,0.2-1,0.4-1.6,0.5c0.2,0.4,0.5,0.8,0.8,1.1
			c0.3,0.4,0.5,0.7,0.8,1s0.5,0.6,0.8,0.9c0.3,0.3,0.5,0.5,0.8,0.7c0.6,0.5,1.1,1,1.7,1.3h-4.6c-0.4-0.3-0.7-0.8-1.1-1.2
			c-0.3-0.4-0.6-0.9-0.9-1.5c-0.3-0.6-0.5-1.3-0.7-2.1h-1.1C49.9,31,49.9,35.8,49.9,35.8z M53.8,26.5c0-0.9-0.2-1.5-0.7-1.9
			c-0.4-0.4-1.1-0.6-2-0.6h-1.3v5.7h1.3c0.5,0,0.9-0.1,1.2-0.3c0.3-0.2,0.6-0.4,0.8-0.7c0.2-0.3,0.4-0.6,0.5-1
			C53.8,27.3,53.8,26.9,53.8,26.5z"/>
		<path class="st3" d="M70.6,35.8h-3.2v-1.3C67,35,66.6,35.4,66,35.7S64.9,36,64.3,36c-0.8,0-1.6-0.1-2.2-0.4
			c-0.7-0.3-1.2-0.7-1.7-1.2s-0.8-1.1-1-1.7S59,31.3,59,30.5s0.1-1.5,0.4-2.2s0.6-1.3,1-1.7c0.5-0.5,1-0.9,1.7-1.2
			c0.7-0.3,1.4-0.4,2.2-0.4c0.4,0,0.8,0.1,1.2,0.2c0.4,0.1,0.7,0.3,1,0.5s0.6,0.5,0.8,0.8c0.2,0.3,0.4,0.7,0.6,1l1.4-2.3h1.2
			L70.6,35.8L70.6,35.8z M67.4,30.5c0-0.3,0-0.6,0-0.9s-0.1-0.6-0.1-0.9c-0.1-0.3-0.2-0.6-0.3-0.9c-0.1-0.3-0.3-0.5-0.5-0.7
			s-0.4-0.4-0.7-0.5s-0.6-0.2-0.9-0.2c-0.4,0-0.7,0.1-0.9,0.2s-0.5,0.3-0.7,0.5s-0.3,0.5-0.5,0.7c-0.1,0.3-0.2,0.6-0.3,0.9
			s-0.1,0.6-0.1,0.9s0,0.6,0,0.9s0,0.6,0,0.9s0.1,0.6,0.1,0.9c0.1,0.3,0.2,0.6,0.3,0.9c0.1,0.3,0.3,0.5,0.5,0.7s0.4,0.4,0.7,0.5
			c0.3,0.1,0.6,0.2,0.9,0.2s0.6-0.1,0.9-0.2s0.5-0.3,0.7-0.5s0.4-0.5,0.5-0.7s0.2-0.6,0.3-0.9c0.1-0.3,0.1-0.6,0.2-0.9
			S67.4,30.8,67.4,30.5z"/>
		<path class="st3" d="M84.5,29.8c0,0.7-0.1,1.5-0.3,2.2c-0.2,0.8-0.4,1.5-0.7,2.3c-0.3,0.7-0.7,1.4-1.1,2.1s-0.9,1.2-1.5,1.7
			l-1.2-0.6c0.2-0.3,0.3-0.6,0.5-1s0.3-0.8,0.4-1.2s0.2-0.9,0.3-1.3s0.2-0.9,0.2-1.3c0.1-0.4,0.1-0.9,0.2-1.3c0-0.4,0.1-0.8,0.1-1.2
			c0-0.2,0-0.5,0-0.8s-0.1-0.5-0.1-0.8c-0.1-0.3-0.1-0.5-0.2-0.8s-0.2-0.5-0.4-0.7c-0.2-0.2-0.4-0.3-0.6-0.5
			c-0.2-0.1-0.5-0.2-0.8-0.2s-0.6,0.1-0.8,0.2c-0.2,0.1-0.5,0.3-0.6,0.5c-0.2,0.2-0.3,0.5-0.5,0.8c-0.1,0.3-0.2,0.6-0.3,0.9
			c-0.1,0.3-0.1,0.6-0.2,0.9c0,0.3-0.1,0.6-0.1,0.8v5.3h-3.2V21.4h3.2v5.4c0.4-0.6,0.9-1,1.5-1.3s1.2-0.5,2-0.5s1.4,0.1,2,0.4
			c0.6,0.2,1,0.6,1.4,1s0.6,0.9,0.8,1.5C84.4,28.4,84.5,29.1,84.5,29.8z"/>
		<path class="st3" d="M103.6,29.6c0,0.7-0.1,1.5-0.3,2.3c-0.2,0.8-0.4,1.6-0.7,2.3c-0.3,0.7-0.7,1.5-1.1,2.1s-0.9,1.2-1.5,1.7
			l-1.2-0.6c0.2-0.3,0.3-0.7,0.5-1.1c0.1-0.4,0.3-0.8,0.4-1.3c0.1-0.4,0.2-0.9,0.3-1.4s0.2-0.9,0.2-1.4c0.1-0.5,0.1-0.9,0.1-1.3
			s0-0.8,0-1.2c0-0.2,0-0.4,0-0.7c0-0.2,0-0.5-0.1-0.7c0-0.2-0.1-0.5-0.2-0.7s-0.2-0.4-0.3-0.6c-0.1-0.2-0.3-0.3-0.5-0.4
			s-0.5-0.2-0.8-0.2s-0.5,0.1-0.7,0.2s-0.4,0.3-0.5,0.6c-0.1,0.2-0.3,0.5-0.3,0.8c-0.1,0.3-0.1,0.6-0.2,0.9s-0.1,0.6-0.1,0.9
			s0,0.5,0,0.7v5.3h-3.2v-4.9c0-0.2,0-0.5,0-0.8s0-0.6,0-0.9s-0.1-0.7-0.1-1c-0.1-0.3-0.2-0.6-0.3-0.9s-0.3-0.5-0.5-0.6
			c-0.2-0.2-0.5-0.2-0.8-0.2s-0.5,0.1-0.7,0.2c-0.2,0.2-0.4,0.3-0.5,0.6s-0.2,0.5-0.3,0.8c-0.1,0.3-0.1,0.6-0.2,0.9
			c0,0.3-0.1,0.6-0.1,0.9s0,0.5,0,0.7v5.3h-3.2V25.3H88l1.2,2.5c0.3-0.9,0.7-1.5,1.2-2c0.6-0.5,1.3-0.7,2.3-0.7
			c0.8,0,1.5,0.2,2.1,0.5s1,0.9,1.3,1.7c0.2-0.3,0.4-0.6,0.6-0.9s0.5-0.5,0.7-0.7c0.3-0.2,0.6-0.3,0.9-0.4C98.7,25,99,25,99.4,25
			c0.7,0,1.4,0.1,1.9,0.4s0.9,0.6,1.3,1c0.3,0.4,0.6,0.9,0.7,1.5C103.5,28.4,103.6,29,103.6,29.6z"/>
		<path class="st3" d="M116.8,35.8h-3.2v-1.3c-0.4,0.5-0.8,0.9-1.4,1.1c-0.5,0.2-1.1,0.4-1.7,0.4c-0.8,0-1.6-0.1-2.2-0.4
			c-0.7-0.3-1.2-0.7-1.7-1.2s-0.8-1.1-1-1.7c-0.2-0.7-0.4-1.4-0.4-2.2s0.1-1.5,0.4-2.2c0.2-0.7,0.6-1.3,1-1.7c0.5-0.5,1-0.9,1.7-1.2
			c0.7-0.3,1.4-0.4,2.2-0.4c0.4,0,0.8,0.1,1.2,0.2c0.4,0.1,0.7,0.3,1,0.5s0.6,0.5,0.8,0.8c0.2,0.3,0.4,0.7,0.6,1l1.4-2.3h1.2
			L116.8,35.8L116.8,35.8z M113.6,30.5c0-0.3,0-0.6,0-0.9s-0.1-0.6-0.1-0.9c-0.1-0.3-0.2-0.6-0.3-0.9c-0.1-0.3-0.3-0.5-0.5-0.7
			s-0.4-0.4-0.7-0.5c-0.3-0.1-0.6-0.2-0.9-0.2c-0.4,0-0.7,0.1-0.9,0.2s-0.5,0.3-0.7,0.5s-0.3,0.5-0.5,0.7c-0.1,0.3-0.2,0.6-0.3,0.9
			c-0.1,0.3-0.1,0.6-0.1,0.9s0,0.6,0,0.9s0,0.6,0,0.9s0.1,0.6,0.1,0.9c0.1,0.3,0.2,0.6,0.3,0.9s0.3,0.5,0.5,0.7s0.4,0.4,0.7,0.5
			s0.6,0.2,0.9,0.2s0.6-0.1,0.9-0.2c0.3-0.1,0.5-0.3,0.7-0.5s0.4-0.5,0.5-0.7c0.1-0.3,0.2-0.6,0.3-0.9c0.1-0.3,0.1-0.6,0.2-0.9
			C113.6,31,113.6,30.8,113.6,30.5z"/>
		<path class="st3" d="M130.7,29.8c0,0.7-0.1,1.5-0.3,2.2c-0.2,0.8-0.4,1.5-0.7,2.3c-0.3,0.7-0.7,1.4-1.1,2.1s-0.9,1.2-1.5,1.7
			l-1.2-0.6c0.2-0.3,0.3-0.6,0.5-1s0.3-0.8,0.4-1.2s0.2-0.9,0.3-1.3c0.1-0.5,0.2-0.9,0.2-1.3c0.1-0.4,0.1-0.9,0.1-1.3
			s0.1-0.8,0.1-1.2c0-0.2,0-0.5,0-0.8s-0.1-0.5-0.1-0.8c-0.1-0.3-0.1-0.5-0.2-0.8c-0.1-0.2-0.2-0.5-0.4-0.7
			c-0.2-0.2-0.4-0.3-0.6-0.5c-0.2-0.1-0.5-0.2-0.8-0.2s-0.6,0.1-0.8,0.2s-0.5,0.3-0.6,0.5c-0.2,0.2-0.3,0.5-0.5,0.8
			c-0.1,0.3-0.2,0.6-0.3,0.9c-0.1,0.3-0.1,0.6-0.2,0.9c0,0.3-0.1,0.6-0.1,0.8v5.3h-3.2V25.3h1.2l1.5,2.5c0.2-0.4,0.4-0.8,0.7-1.1
			c0.3-0.3,0.6-0.6,0.9-0.9c0.3-0.2,0.7-0.4,1.1-0.5s0.8-0.2,1.3-0.2c0.8,0,1.4,0.1,2,0.4c0.6,0.2,1,0.6,1.4,1s0.6,0.9,0.8,1.5
			C130.6,28.4,130.7,29.1,130.7,29.8z"/>
	</g>
</g>
</svg>
